<?xml version="1.0" encoding="utf-8"?>
<!-- Generator: Adobe Illustrator 18.1.1, SVG Export Plug-In . SVG Version: 6.00 Build 0)  -->
<!DOCTYPE svg PUBLIC "-//W3C//DTD SVG 1.1//EN" "http://www.w3.org/Graphics/SVG/1.1/DTD/svg11.dtd">
<svg version="1.1" id="Layer_1" xmlns="http://www.w3.org/2000/svg" xmlns:xlink="http://www.w3.org/1999/xlink" x="0px" y="0px"
	 width="35px" height="35px" viewBox="0 0 35 35" enable-background="new 0 0 35 35" xml:space="preserve">
<g>
	<g>
		<polygon fill="#B2876F" points="24.7,13.7 24.7,10.9 24.7,10.4 24.3,10.4 21.5,10.5 21.5,13.7 		"/>
		<path fill="#B2876F" d="M17.4,21.1c1.8,0,3.3-1.5,3.3-3.3c0-0.7-0.2-1.4-0.6-2c-0.6-0.8-1.6-1.4-2.7-1.4c-1.1,0-2.1,0.6-2.7,1.4
			c-0.4,0.5-0.6,1.2-0.6,2C14.1,19.6,15.6,21.1,17.4,21.1z"/>
		<path fill="#B2876F" d="M17.5,0C7.8,0,0,7.8,0,17.5S7.8,35,17.5,35C27.2,35,35,27.2,35,17.5S27.2,0,17.5,0z M26.9,15.8v7.8
			c0,2-1.7,3.7-3.7,3.7H11.6c-2,0-3.7-1.6-3.7-3.7v-7.8v-3.9c0-2,1.6-3.7,3.7-3.7h11.7c2,0,3.7,1.6,3.7,3.7V15.8z"/>
		<path fill="#B2876F" d="M22.6,17.8c0,2.9-2.3,5.2-5.2,5.2c-2.9,0-5.2-2.3-5.2-5.2c0-0.7,0.1-1.3,0.4-2H9.8v7.8
			c0,1,0.8,1.8,1.8,1.8h11.7c1,0,1.8-0.8,1.8-1.8v-7.8h-2.8C22.5,16.4,22.6,17.1,22.6,17.8z"/>
	</g>
</g>
</svg>
