<?xml version="1.0" encoding="utf-8"?>
<!-- Generator: Adobe Illustrator 18.1.1, SVG Export Plug-In . SVG Version: 6.00 Build 0)  -->
<!DOCTYPE svg PUBLIC "-//W3C//DTD SVG 1.1//EN" "http://www.w3.org/Graphics/SVG/1.1/DTD/svg11.dtd">
<svg version="1.1" id="Layer_1" xmlns="http://www.w3.org/2000/svg" xmlns:xlink="http://www.w3.org/1999/xlink" x="0px" y="0px"
	 width="35px" height="35px" viewBox="0 0 35 35" enable-background="new 0 0 35 35" xml:space="preserve">
<g>
	<g>
		<path fill="#B2876F" d="M14.2,16.2c0.4,0,0.8-0.2,1.1-0.5c0.5-0.5,0.7-1.4,0.5-2.3c-0.2-1.6-1.4-3-2.6-3l0,0
			c-0.4,0-0.8,0.2-1.1,0.5c-0.5,0.5-0.6,1.3-0.5,2.2C11.9,14.8,13,16.2,14.2,16.2L14.2,16.2z"/>
		<path fill="#B2876F" d="M15.6,21.1c-0.1-0.1-0.2-0.2-0.4-0.3c-0.4-0.1-0.8-0.2-1.2-0.2H14c-1.9,0-3.5,1.1-3.5,2.4
			c0,1.4,1.4,2.5,3.2,2.5c2.4,0,3.6-0.8,3.6-2.4c0-0.2,0-0.3-0.1-0.5C17,22.1,16.4,21.7,15.6,21.1z"/>
		<path fill="#B2876F" d="M17.5,0C7.8,0,0,7.8,0,17.5S7.8,35,17.5,35C27.2,35,35,27.2,35,17.5S27.2,0,17.5,0z M15.9,27
			c-0.7,0.2-1.5,0.3-2.2,0.3c-0.9,0-1.7-0.1-2.5-0.3C9.6,26.6,8.5,25.9,8,25c-0.2-0.4-0.3-0.8-0.3-1.3c0-0.5,0.1-0.9,0.3-1.4
			c0.8-1.8,3-3,5.5-3c0,0,0,0,0.1,0c-0.2-0.3-0.3-0.7-0.3-1.1c0-0.2,0-0.4,0.1-0.6c-2.6-0.1-4.5-1.9-4.5-4.4c0-1.7,1.4-3.5,3.4-4.1
			c0.6-0.2,1.2-0.3,1.8-0.3h5.5c0.2,0,0.4,0.1,0.4,0.3c0.1,0.2,0,0.4-0.2,0.5l-1.2,0.9c-0.1,0.1-0.2,0.1-0.3,0.1h-0.4
			c0.6,0.7,0.9,1.6,0.9,2.7c0,1.2-0.6,2.3-1.7,3.2c-0.9,0.7-0.9,0.8-0.9,1.2c0,0.2,0.6,0.9,1.3,1.4c1.5,1.1,2.1,2.1,2.1,3.9
			C19.5,24.8,18.1,26.4,15.9,27z M28.3,17.6c0,0.2-0.2,0.4-0.4,0.4h-3.1v3.1c0,0.2-0.2,0.4-0.4,0.4h-0.9c-0.2,0-0.4-0.2-0.4-0.4V18
			h-3.1c-0.2,0-0.4-0.2-0.4-0.4v-0.9c0-0.2,0.2-0.4,0.4-0.4H23v-3.1c0-0.2,0.2-0.4,0.4-0.4h0.9c0.2,0,0.4,0.2,0.4,0.4v3.1h3.1
			c0.2,0,0.4,0.2,0.4,0.4V17.6z"/>
	</g>
</g>
</svg>
